<svg width="48" height="48" fill="none" xmlns="http://www.w3.org/2000/svg"><circle cx="24" cy="24" r="24" fill="#fff"/><path fill-rule="evenodd" clip-rule="evenodd" d="M33.565 28.112a6.222 6.222 0 01-8.985 5.573c-.83.41-1.774.648-2.752.648a6.222 6.222 0 01-6.221-6.22 6.222 6.222 0 016.22-6.222c.99 0 1.923.228 2.753.637a6.249 6.249 0 012.764-.637 6.222 6.222 0 016.22 6.221zm-1.228 0a5 5 0 00-6.495-4.765 6.15 6.15 0 011.99 3.094h-1.285a4.973 4.973 0 00-1.956-2.503 4.951 4.951 0 00-1.944 2.503h-1.285a6.26 6.26 0 011.99-3.105c-.49-.151-1-.228-1.513-.228a5 5 0 00-4.993 4.993 5 5 0 006.483 4.765 6.127 6.127 0 01-2.172-4.265h2.957v1.217l-1.445.023a5 5 0 001.922 2.423 5.002 5.002 0 001.922-2.423l-1.444-.023v-1.217h2.957a6.169 6.169 0 01-2.195 4.254c.478.148.99.239 1.513.239a4.968 4.968 0 004.992-4.982z" fill="#000"/><path d="M32.532 14.3l-.038.012a1.865 1.865 0 00-.637-.77c-.272-.192-.614-.287-1.026-.287a1.64 1.64 0 00-1.204.548 1.97 1.97 0 00-.37.618c-.093.242-.14.51-.14.803 0 .293.047.56.14.802.093.242.217.45.37.625.157.17.34.301.547.395.209.093.427.14.657.14.407 0 .739-.064.994-.191.259-.132.478-.332.656-.6l.038.014-.013.407c-.097.102-.21.194-.337.274a2.468 2.468 0 01-.414.198c-.145.05-.296.089-.453.114a2.765 2.765 0 01-1.408-.115 2.498 2.498 0 01-.784-.445 2.17 2.17 0 01-.535-.701 2.104 2.104 0 01-.197-.917c0-.336.066-.64.197-.912.132-.276.31-.511.535-.707a2.34 2.34 0 01.784-.446c.298-.106.61-.159.937-.159.157 0 .314.013.471.038.157.026.308.066.453.121.148.051.286.117.414.198.127.076.24.165.337.267l.026.676zm-14.04 1.217a.636.636 0 00-.134.082.17.17 0 00-.064.14v.784c-.204.294-.465.52-.784.682a2.305 2.305 0 01-1.057.242c-.327 0-.64-.053-.937-.16a2.495 2.495 0 01-.783-.445 2.173 2.173 0 01-.536-.7 2.105 2.105 0 01-.197-.918c0-.336.066-.64.198-.912a2.15 2.15 0 01.535-.707c.225-.195.486-.344.783-.446.298-.106.61-.159.937-.159.157 0 .314.013.471.038.158.026.308.066.453.121.148.051.287.117.414.198.127.076.24.166.338.267l.025.676-.038.012a1.863 1.863 0 00-.637-.77c-.272-.192-.614-.287-1.026-.287a1.654 1.654 0 00-1.204.548c-.153.17-.276.376-.37.618-.093.242-.14.51-.14.803 0 .288.045.554.134.796.093.242.216.45.37.624.157.17.34.304.547.402.209.093.43.14.663.14.442 0 .82-.085 1.134-.255V15.74a.164.164 0 00-.07-.14.73.73 0 00-.127-.083l.005-.032c.022.004.06.008.115.012l.172.013h.548a6.698 6.698 0 00.255-.025l.007.032zm4.615-2.383a.713.713 0 00-.128.083c-.042.034-.066.097-.07.19l-.012.39c0 .152-.002.327-.006.522 0 .195-.002.408-.006.637v.714a2.393 2.393 0 01-.102.707 1.522 1.522 0 01-.255.49 1.247 1.247 0 01-.344.313 1.6 1.6 0 01-.37.172 1.328 1.328 0 01-.337.076 2.21 2.21 0 01-.249.02c-.242 0-.476-.033-.7-.096a1.586 1.586 0 01-.593-.293 1.461 1.461 0 01-.408-.53 1.845 1.845 0 01-.153-.79v-1.382c0-.204-.002-.386-.006-.548 0-.165-.002-.3-.005-.401-.004-.094-.028-.157-.07-.191a.72.72 0 00-.128-.083l.006-.032c.021.004.055.008.102.013l.153.012c.055 0 .108.002.159.006h.23a2.09 2.09 0 01.159-.006 5.59 5.59 0 00.26-.025l.007.032a.632.632 0 00-.134.083c-.038.034-.06.097-.064.19a37.55 37.55 0 00-.012.402v1.93c0 .464.108.806.325 1.026.216.221.537.332.961.332.124 0 .264-.015.421-.045a1.162 1.162 0 00.79-.637c.098-.187.147-.435.147-.745 0-.336-.002-.623-.006-.86 0-.243-.002-.449-.006-.619a14.38 14.38 0 00-.019-.783c-.003-.094-.027-.157-.07-.191a.728.728 0 00-.127-.083l.006-.032c.047.008.1.017.16.025a2.614 2.614 0 00.324 0 3.69 3.69 0 00.166-.025l.004.032zM27.73 14.3l-.038.012a1.866 1.866 0 00-.637-.77c-.272-.192-.614-.287-1.026-.287-.23 0-.448.049-.656.146a1.63 1.63 0 00-.548.402c-.153.17-.276.376-.37.618a2.21 2.21 0 00-.14.803c0 .293.047.56.14.802.094.242.217.45.37.625.157.17.34.301.547.395.209.093.427.14.657.14.408 0 .739-.064.994-.191a1.73 1.73 0 00.656-.6l.038.014-.012.407a1.76 1.76 0 01-.338.274 2.476 2.476 0 01-.414.198 2.63 2.63 0 01-.453.114 2.746 2.746 0 01-1.408-.115 2.5 2.5 0 01-.783-.445 2.173 2.173 0 01-.536-.701 2.102 2.102 0 01-.197-.917c0-.336.066-.64.197-.912.132-.276.31-.511.536-.707.225-.195.486-.344.783-.446.298-.106.61-.159.937-.159.157 0 .314.013.471.038a2.3 2.3 0 01.453.121c.148.051.286.117.414.198.127.076.24.165.338.267l.025.676zm6.722 3.039a1.436 1.436 0 00-.26-.019 2.68 2.68 0 01-.16-.005h-.382l-.153.012a1.212 1.212 0 00-.109.013l-.005-.026a.718.718 0 00.127-.082c.042-.034.066-.098.07-.192.004-.102.006-.208.006-.318.004-.11.006-.236.006-.376v-2.25c0-.14-.002-.263-.006-.369 0-.11-.002-.216-.006-.318-.004-.094-.027-.158-.07-.191a.58.58 0 00-.127-.09l.005-.025a.506.506 0 00.109.019c.05 0 .102.002.153.006.055.004.108.006.159.006h.223c.05-.004.104-.006.159-.006a5.543 5.543 0 00.261-.026l.006.026a.528.528 0 00-.134.09c-.038.033-.06.097-.063.19l-.013.319v2.994l.013.319c.003.093.025.157.063.191a.64.64 0 00.134.083l-.006.025z" fill="#000"/></svg>