<svg width="48" height="48" fill="none" xmlns="http://www.w3.org/2000/svg"><circle cx="24" cy="24" r="24" fill="#fff"/><path d="M28.025 14h4.543c0 .341-.002.682.002 1.024-.385.017-.779.06-1.133.22-.36.162-.66.456-.815.82-1.842 4.328-3.681 8.656-5.52 12.985-.032.072-.058.145-.095.214-.659-.008-1.318-.001-1.976-.004-.29-.577-.577-1.157-.87-1.733l-1.01 2.7h6.518c.398.005.807-.012 1.18-.168.618-.248 1.11-.728 1.51-1.249.484-.63.851-1.34 1.178-2.062.367-.003.734.001 1.1 0a953.206 953.206 0 01-2.095 4.451H15.524c.122-.318.238-.639.368-.954.008-.032.049-.024.073-.027.625-.005 1.254-.03 1.868-.16.319-.074.649-.174.895-.402.13-.124.17-.305.213-.472l1.775-4.746c-1.25-2.664-2.505-5.327-3.756-7.99-.101-.234-.234-.465-.443-.616-.433-.324-.996-.366-1.517-.386v-1.146h5.273v1.146c-.23.014-.472.01-.68.124a.255.255 0 00-.137.282c.033.182.177.312.25.477.742 1.599 1.484 3.198 2.229 4.796l1.12-3.129a.617.617 0 00.012-.458c-.05-.115-.161-.186-.271-.234-.214-.088-.45-.087-.677-.104.116-.322.233-.644.353-.965.028-.018.066-.004.098-.008h5.35l-.367.972c-.43.02-.872.03-1.275.199a.991.991 0 00-.468.366c-.076.125-.123.265-.174.402-.745 2.032-1.497 4.062-2.234 6.097.408.922.833 1.837 1.25 2.756l4.536-10.71c.102-.214.268-.41.282-.657.012-.193-.131-.36-.297-.44-.358-.165-.76-.173-1.148-.187V14zm2.75 19.221c.477.495.95.992 1.423 1.49-.001-.462.002-.926.001-1.39l.245-.001v1.984c-.477-.492-.948-.99-1.423-1.484l-.001 1.399h-.246v-1.998zm-13.894.069c.526-.081 1.082.33 1.129.867a.979.979 0 01-.3.838c-.369.36-1.033.354-1.392-.02a.97.97 0 01-.292-.728c.005-.47.394-.89.855-.957zm0 .242a.748.748 0 00-.598.624.765.765 0 00.49.831c.292.11.648.007.835-.243.243-.304.202-.796-.097-1.049a.745.745 0 00-.63-.163zm3.797-.14c.27-.203.71-.119.865.187l-.195.11c-.116-.183-.401-.227-.558-.072-.067.049-.06.138-.052.21.019.096.12.136.195.181.193.102.425.16.56.344a.58.58 0 01-.038.703c-.172.208-.488.26-.729.15-.185-.092-.3-.285-.337-.483.083-.02.166-.038.25-.056.008.18.148.363.339.366.257.028.462-.306.312-.52-.16-.218-.469-.221-.653-.41-.217-.177-.195-.56.041-.71zm8.791-.104c.345-.043.701.116.913.389a.997.997 0 01-.106 1.318.99.99 0 01-.796.259.965.965 0 01-.709-.406 1.008 1.008 0 01-.138-.857c.109-.372.455-.654.837-.703zm-.042.248c-.38.064-.651.47-.584.845a.762.762 0 00.748.65.74.74 0 00.618-.341.769.769 0 00-.112-.971.738.738 0 00-.67-.183zm-14.23-.216h.236v1.683h.584v.216h-.82V33.32zm3.003.002h.25c0 .373-.002.747 0 1.12.004.165.024.346.14.472.185.182.548.156.677-.08a.7.7 0 00.083-.367 257.39 257.39 0 01-.002-1.145h.25v1.169c0 .177-.031.364-.144.506-.243.337-.807.356-1.073.038a.729.729 0 01-.18-.5c-.002-.404 0-.809-.001-1.213zm1.704-.002h.246v1.9l-.246-.001V33.32zm2.46.002c.09-.002.18-.002.27-.002.188.462.374.924.56 1.387.184-.461.374-.92.555-1.383.093-.008.185-.003.278-.004-.276.672-.553 1.343-.831 2.013-.283-.668-.556-1.34-.833-2.011zm1.776-.002l.245.002c.003.367 0 .736.002 1.104.006.174.02.372.153.502.154.132.4.14.564.023a.455.455 0 00.168-.294c.033-.194.021-.391.024-.587v-.748h.237c.004.345 0 .691.002 1.037.005.214-.002.447-.132.628-.229.33-.755.365-1.044.098a.722.722 0 01-.219-.526c-.002-.413 0-.826 0-1.24zm1.701.002l.256-.002v1.9h-.257c0-.633.002-1.266.001-1.898zm.41 0l2.296-.002v.228h-.44v1.671h-.256c0-.557.001-1.114-.001-1.67h-.902v1.67h-.235v-1.67l-.462-.001v-.226z" fill="#000"/></svg>