<svg width="266" height="302" fill="none" xmlns="http://www.w3.org/2000/svg"><path d="M37 1.5h182.572C244.109 1.5 264 21.391 264 45.928V161c0 62.684-50.816 113.5-113.5 113.5S37 223.684 37 161V1.5z" stroke="#F9FAFB" stroke-width="3"/><path d="M.5 12h204.742c26.652 0 48.258 21.606 48.258 48.258V175.5c0 69.864-56.636 126.5-126.5 126.5S.5 245.364.5 175.5V12z" fill="#F0F4F9"/><mask id="a" style="mask-type:alpha" maskUnits="userSpaceOnUse" x="13" y="25" width="230" height="263"><path d="M13.5 25h229v148.5c0 63.237-51.263 114.5-114.5 114.5S13.5 236.737 13.5 173.5V25z" fill="#fff"/></mask><g mask="url(#a)"><g clip-path="url(#clip0_2_7253)"><rect x="34.5" y="48" width="188" height="407.083" rx="24" fill="#fff"/><path fill-rule="evenodd" clip-rule="evenodd" d="M256.5 32.793H30.262v30.165H50.75a13.218 13.218 0 019.678-9.68V33.422h6.285V53.28a13.218 13.218 0 019.678 9.678h39.34V33.422h6.284v29.537h39.34a13.217 13.217 0 019.679-9.68V33.422h6.284V53.28a13.216 13.216 0 019.678 9.678h39.34V33.422h6.284v29.537h23.88v6.284h-23.881v78.555H256.5v6.284h-23.881v78.555H256.5v6.285h-23.881v78.553H256.5V32.793zm0 290.966h-23.881v212.412h-6.284V323.759h-48.988L90.153 501.646l80.262 34.525h-15.904l-67.127-28.875-14.154 28.875h-6.999l15.373-31.361-40.787-17.545-10.555 21.533v-14.279l4.775-9.74-4.775-2.054v-6.841l7.544 3.245 25.736-52.503-33.28-14.316v-6.841l36.049 15.507 25.88-52.801-61.929-26.639v-6.841l64.7 27.831 19.001-38.767h-83.7v10.936l-5.942-2.556-2.483 5.773 8.424 3.624v63.933l-.03-.013-2.483 5.773 2.513 1.081v63.574l-5.941-2.556-2.483 5.773 8.424 3.624v11.794l-9.198 18.767 5.643 2.766 3.555-7.254v27.373h35.97l-.323.658 5.643 2.766 1.678-3.424h81.281l20.231 8.703 2.483-5.773-6.81-2.93H256.5V422.424h-23.881v-6.284H256.5v-92.381zm-226.238-6.285h30.165v-68.875a13.22 13.22 0 01-9.678-9.678H30.262v78.553zm0-84.838H50.75a13.218 13.218 0 019.678-9.679v-59.198a13.22 13.22 0 01-9.678-9.678H30.262v78.555zm0-84.839h20.486a13.219 13.219 0 019.68-9.68V78.92a13.218 13.218 0 01-9.68-9.678H30.263v78.555zm36.45 100.802v68.875h49.018v-78.553H76.39a13.22 13.22 0 01-9.678 9.678zm9.678-15.963h39.34v-78.555H76.39a13.22 13.22 0 01-9.678 9.678v59.198a13.218 13.218 0 019.678 9.679zm0-163.394a13.219 13.219 0 01-9.678 9.678v59.197a13.22 13.22 0 019.679 9.68h39.339V69.242H76.39zm45.624 0h39.34a13.218 13.218 0 009.679 9.678v59.197a13.219 13.219 0 00-9.679 9.68h-39.34V69.242zm55.303 68.875V78.92a13.217 13.217 0 009.678-9.678h39.34v78.555h-39.339a13.22 13.22 0 00-9.679-9.68zm-55.303 15.964h39.34a13.22 13.22 0 009.679 9.678v59.198a13.217 13.217 0 00-9.679 9.679h-39.34v-78.555zm64.982 78.555a13.22 13.22 0 00-9.679-9.679v-59.198a13.22 13.22 0 009.678-9.678h39.34v78.555h-39.339zm-9.679 15.963a13.22 13.22 0 009.678-9.678h39.34v78.553h-49.018v-68.875zm-15.963-9.678a13.22 13.22 0 009.679 9.678v68.875h-49.019v-78.553h39.34zm-40.392 84.838l-20.221 41.253 40.787 17.545 28.82-58.798h-49.386zm-22.99 46.903l-25.881 52.8 40.787 17.545 25.88-52.8-40.786-17.545zm-28.65 58.45l-25.736 52.503 40.787 17.545 25.735-52.503-40.787-17.545zm104.853-271.261a6.913 6.913 0 10-.001-13.825 6.913 6.913 0 00.001 13.825zm-103.693-6.913a6.913 6.913 0 11-13.825 0 6.913 6.913 0 0113.825 0zm103.693-77.926a6.913 6.913 0 10-.001-13.825 6.913 6.913 0 00.001 13.825zM70.482 66.1a6.913 6.913 0 11-13.825 0 6.913 6.913 0 0113.825 0zm103.693 176.592a6.913 6.913 0 10-.001-13.825 6.913 6.913 0 00.001 13.825zm-103.693-6.913a6.913 6.913 0 11-13.825 0 6.913 6.913 0 0113.825 0z" fill="#F9FAFB"/><path fill="#fff" d="M224.449 157.852v10.055h-18.853v-10.055zm-110.605 0v10.055H94.991v-10.055zm0 84.839v10.055H94.991v-10.055zm110.605 0v10.055h-18.853v-10.055zm.001-169.679v10.055h-18.854V73.012zm-110.606 0v10.055H94.991V73.012zm84.211 93.009v10.055h-18.853v-10.055zM87.45 166.02v10.056H68.597V166.02zm0 84.84v10.056H68.597V250.86zm110.605.001v10.055h-18.853v-10.055zm0-169.678v10.055h-18.853V81.183zm-110.605 0v10.055H68.597V81.183zm136.999 91.751v10.055h-18.853v-10.055zm-110.605 0v10.055H94.991v-10.055zm0 84.84v10.055H94.991v-10.055zm110.605 0v10.055h-18.853v-10.055zm0-169.679V98.15h-18.853V88.095zm0-40.22V57.93h-18.853V47.875zm-79.811 0V57.93h-18.853V47.875zm-32.679 0V57.93H93.106V47.875zm1.885 40.22V98.15H94.991V88.095zm84.211 93.009v10.055h-18.853v-10.055zm-110.605 0v10.055H68.597v-10.055zm0 84.839v10.055H68.597v-10.055zm110.605 0v10.055h-18.853v-10.055zm0-169.678v10.055h-18.853V96.265zM87.45 96.264v10.055H68.597V96.264zm136.999 91.753v10.055h-18.853v-10.055zm-110.605 0v10.055H94.991v-10.055zm0 84.839v10.055H94.991v-10.055zm110.605 0v10.055h-18.853v-10.055zm0-169.678v10.055h-18.853v-10.055zm-110.605 0v10.055H94.991v-10.055zm84.211 93.008v10.055h-18.853v-10.055zm-110.605 0v10.055H68.597v-10.055zm0 84.84v10.055H68.597v-10.055zm110.605 0v10.055h-18.853v-10.055zm0-169.679v10.055h-18.853v-10.055zm-110.605 0v10.055H68.597v-10.055zM224.449 203.1v10.055h-18.853V203.1zm-110.605 0v10.055H94.991V203.1zm0 84.839v10.055H94.991v-10.055zm110.605 0v10.055h-18.853v-10.055zm0-169.679v10.055h-18.853V118.26zm-110.605 0v10.055H94.991V118.26zm110.605 99.922v10.055h-18.853v-10.055zm-110.605 0v10.055H94.991v-10.055zm110.605-84.839v10.055h-18.853v-10.055zm-110.605 0v10.055H94.991v-10.055zm84.211 77.926v10.055h-18.853v-10.055zm-110.605 0v10.055H68.597v-10.055zm110.605-84.839v10.055h-18.853V126.43zm-110.605 0v10.055H68.597V126.43zm37.078-53.418h18.853v55.303h-18.853zm0 84.84h18.853v10.055h-18.853zm0 84.839h18.853v10.055h-18.853zm25.138 30.165h18.853v10.055h-18.853zm0-99.922h18.853v10.055h-18.853zM37.804 81.183h18.853v10.055H37.804zm0 84.838h18.853v10.055H37.804zm0 84.84h18.853v10.055H37.804zm111.862-62.844h18.853v10.055h-18.853zM37.804 126.43h18.853v10.055H37.804zm0-85.467h18.853v10.055H37.804zm0 170.306h18.853v10.055H37.804zm0-99.922h18.853v10.055H37.804zm0 84.839h18.853v10.055H37.804zm0 84.84h18.853v10.055H37.804zm0-15.083h18.853v10.055H37.804zm86.724-93.009h18.853v10.055h-18.853zm0 84.84h18.853v10.055h-18.853zm25.138 30.165h18.853v10.055h-18.853zm-25.138-99.922h18.853v10.055h-18.853zm0 84.839h18.853v10.055h-18.853zm0-69.756h18.853v25.137h-18.853zm0-69.757h18.853v10.055h-18.853zm32.679-50.275h11.312v52.789h-11.312z"/><g filter="url(#filter0_d_2_7253)"><rect x="42.522" y="72" width="171.957" height="24.064" rx="6.016" fill="#fff" shape-rendering="crispEdges"/><path d="M57.352 87.792a3.969 3.969 0 100-7.938 3.969 3.969 0 000 7.938zm4.388.418l-.836-.836" stroke="#12143D" stroke-width=".752" stroke-linecap="round" stroke-linejoin="round"/><path d="M70.255 87.523v-1.824h2.112c.208 0 .336.104.336.32v1.504h1.136V85.81c0-.56-.224-.888-.656-1v-.024c.328-.24.528-.616.528-1.128 0-.968-.768-1.496-1.848-1.496h-2.744v5.36h1.136zm0-4.256h1.528c.448 0 .792.264.792.696 0 .448-.336.704-.8.704h-1.52v-1.4zm6.225.152c-1.224 0-2.08.928-2.08 2.112 0 1.12.728 2.112 2.072 2.112.944 0 1.736-.496 2-1.384h-1.128c-.144.256-.504.424-.872.408-.552-.024-.904-.368-.968-.776h3.008c.144-1.408-.704-2.472-2.032-2.472zm-.008.968c.464 0 .824.248.944.664h-1.904c.112-.4.488-.664.96-.664zm4.524-.968c-1.224 0-2.08.928-2.08 2.112 0 1.12.728 2.112 2.072 2.112.944 0 1.736-.496 2-1.384H81.86c-.144.256-.504.424-.872.408-.552-.024-.904-.368-.968-.776h3.008c.144-1.408-.704-2.472-2.032-2.472zm-.008.968c.464 0 .824.248.944.664h-1.904c.112-.4.488-.664.96-.664zm5.005-.968c-.584 0-1.04.28-1.296.648h-.032v-2.304h-1.072v5.76h1.072v-.52h.032c.248.36.712.632 1.288.64 1.128 0 1.904-.888 1.904-2.12 0-1.256-.816-2.112-1.896-2.104zm-.264 3.2c-.624 0-1.064-.472-1.064-1.088 0-.592.424-1.088 1.064-1.088.632 0 1.072.464 1.072 1.088 0 .624-.44 1.088-1.072 1.088zm4.698 1.024c1.296 0 2.144-.92 2.144-2.112 0-1.184-.84-2.112-2.144-2.112-1.304 0-2.144.928-2.144 2.112 0 1.192.848 2.112 2.144 2.112zm0-1.048c-.64 0-1.064-.472-1.064-1.064 0-.592.424-1.072 1.064-1.072.64 0 1.064.48 1.064 1.072 0 .592-.432 1.064-1.064 1.064zm6.546-3.056h-1.176l-.784 1.4h-.824v-3.176h-1.08v5.76h1.08V85.93H95.5c.2 0 .32.104.32.296v1.296h1.08v-1.656c0-.52-.32-.84-.752-.912l.824-1.416z" fill="#12143D"/><path fill-rule="evenodd" clip-rule="evenodd" d="M203.951 84.032a2.507 2.507 0 10-5.013 0 2.507 2.507 0 005.013 0zm-1.99-.835l-.517.516-.517-.516-.318.318.516.517-.516.517.318.319.517-.517.517.517.319-.32-.517-.516.517-.517-.319-.319z" fill="#12143D"/></g><g filter="url(#filter1_d_2_7253)"><rect x="42.522" y="241.109" width="41.109" height="20.373" rx="6.016" transform="rotate(-90 42.522 241.109)" fill="#fff"/></g><rect x="42.522" y="220.736" width=".501" height="20.373" rx=".251" transform="rotate(-90 42.522 220.736)" fill="#fff"/><path fill-rule="evenodd" clip-rule="evenodd" d="M55.982 209.368a2.455 2.455 0 01-3.96 1.94.312.312 0 01-.065.092l-1.965 1.965a.329.329 0 01-.463-.464l1.965-1.964a.343.343 0 01.092-.065 2.455 2.455 0 114.396-1.504zm-.655 0a1.8 1.8 0 10-3.601 0 1.8 1.8 0 003.601 0zm-1.473-.819a.327.327 0 10-.655 0v.491h-.491a.328.328 0 000 .655h.49v.491a.328.328 0 10.656 0v-.491h.49a.327.327 0 100-.655h-.49v-.491zm-.328 24.011a2.455 2.455 0 10-1.94-.95.319.319 0 00-.092.064l-1.965 1.965a.327.327 0 10.463.463l1.965-1.965a.321.321 0 00.065-.091c.415.322.937.514 1.504.514zm0-4.256a1.8 1.8 0 110 3.601 1.8 1.8 0 010-3.601zm-1.146 1.801c0 .181.147.327.328.327h1.637a.327.327 0 100-.655h-1.637a.328.328 0 00-.328.328z" fill="#12143D"/><g filter="url(#filter2_d_2_7253)"><rect x="194.425" y="241.109" width="20.053" height="20.053" rx="6.016" transform="rotate(-90 194.425 241.109)" fill="#fff"/></g><path d="M204.337 234.843a3.76 3.76 0 10-.002-7.522 3.76 3.76 0 00.002 7.522z" stroke="#292D32" stroke-width=".752" stroke-linecap="round" stroke-linejoin="round"/><path d="M204.337 232.587a1.505 1.505 0 10-.002-3.01 1.505 1.505 0 00.002 3.01zm0-5.515v-1.003m-4.011 5.014h-1.003m5.014 4.01v1.003m4.01-5.013h1.003" stroke="#292D32" stroke-width=".752" stroke-linecap="round" stroke-linejoin="round"/><g filter="url(#filter3_bd_2_7253)" shape-rendering="crispEdges"><circle cx="152.815" cy="177.179" r="12.032" fill="#fff" fill-opacity=".7"/><circle cx="152.815" cy="177.179" r="11.781" stroke="#12143D" stroke-opacity=".1" stroke-width=".501"/></g><g filter="url(#filter4_d_2_7253)"><circle cx="152.815" cy="177.179" r="5.515" fill="url(#paint0_radial_2_7253)"/><circle cx="152.815" cy="177.179" r="4.011" stroke="#fff" stroke-width="3.008"/></g><g filter="url(#filter5_d_2_7253)"><rect x="166.852" y="200" width="48.064" height="17.021" rx="6.016" fill="#fff" shape-rendering="crispEdges"/><path d="M174.781 206.98H173v.83h.927v3.201h.854v-4.031zm1.433 1.035c-.548 0-.969.367-.969.884 0 .403.301.722.734.812l1.143.247a.134.134 0 01.102.132.127.127 0 01-.132.133h-1.721v.788h1.733c.547 0 .974-.373.974-.903 0-.421-.288-.734-.739-.83l-1.125-.229a.128.128 0 01-.103-.126.12.12 0 01.127-.126h1.624v-.782h-1.648zm4.445 0h-1.233v-1.035h-.812v1.035h-.421v.782h.421v1.335c0 .542.355.879.902.879h1.143v-.788h-.992c-.145 0-.241-.085-.241-.229v-1.197h1.233v-.782zm4.177-.548v-.788h-1.149c-.529 0-.896.355-.896.878v.458h-.421v.782h.421v2.214h.812v-2.214h1.233v-.782h-1.233v-.325c0-.139.096-.223.241-.223h.992zm.382 2.677c0 .542.325.867.896.867h.56v-.788h-.403c-.151 0-.241-.085-.241-.223v-3.321h-.812v3.465zm3.225.957c.974 0 1.612-.692 1.612-1.588 0-.891-.632-1.589-1.612-1.589-.981 0-1.613.698-1.613 1.589 0 .896.638 1.588 1.613 1.588zm0-.788c-.482 0-.801-.355-.801-.8 0-.445.319-.806.801-.806.481 0 .8.361.8.806 0 .445-.325.8-.8.8zm3.507.788c.975 0 1.612-.692 1.612-1.588 0-.891-.631-1.589-1.612-1.589-.981 0-1.612.698-1.612 1.589 0 .896.637 1.588 1.612 1.588zm0-.788c-.481 0-.8-.355-.8-.8 0-.445.319-.806.8-.806.481 0 .8.361.8.806 0 .445-.325.8-.8.8zm3.545-2.298c-.349 0-.614.174-.722.469h-.03v-.469h-.77v2.996h.812v-1.492c0-.415.276-.692.667-.692h.674v-.812h-.631z" fill="#111827"/><path d="M207.536 207.508l-2.179 2.179a.663.663 0 01-.936 0l-2.179-2.179" stroke="#12143D" stroke-width=".752" stroke-miterlimit="10" stroke-linecap="round" stroke-linejoin="round"/></g><path d="M113.393 117.06c-.877-3.86-4.244-5.598-7.202-5.598h-.009c-2.949 0-6.325 1.73-7.202 5.59-.978 4.312 1.663 7.963 4.052 10.261a4.543 4.543 0 003.159 1.278 4.51 4.51 0 003.15-1.278c2.389-2.298 5.03-5.941 4.052-10.253zm-7.202 4.187a2.632 2.632 0 110-5.264 2.632 2.632 0 010 5.264z" fill="url(#paint1_radial_2_7253)"/><path d="M150.057 178.181a.751.751 0 100-1.504v1.504zm-36.597-56.149a.752.752 0 000 1.504v-1.504zm36.597 54.645h-26.32v1.504h26.32v-1.504zm-29.077-2.757v-47.627h-1.504v47.627h1.504zm-4.261-51.888h-3.259v1.504h3.259v-1.504zm4.261 4.261a4.261 4.261 0 00-4.261-4.261v1.504a2.757 2.757 0 012.757 2.757h1.504zm2.757 50.384a2.757 2.757 0 01-2.757-2.757h-1.504a4.261 4.261 0 004.261 4.261v-1.504z" fill="url(#paint2_radial_2_7253)"/></g><rect x="35" y="48.5" width="187" height="406.083" rx="23.5" stroke="#fff"/></g><path d="M15 26.5h183.667C222.047 26.5 241 45.453 241 68.833V173.5c0 62.408-50.592 113-113 113s-113-50.592-113-113v-147z" stroke="#fff" stroke-width="3"/><defs><filter id="filter0_d_2_7253" x="-8.113" y="36.405" width="273.227" height="125.333" filterUnits="userSpaceOnUse" color-interpolation-filters="sRGB"><feFlood flood-opacity="0" result="BackgroundImageFix"/><feColorMatrix in="SourceAlpha" values="0 0 0 0 0 0 0 0 0 0 0 0 0 0 0 0 0 0 127 0" result="hardAlpha"/><feOffset dy="15.04"/><feGaussianBlur stdDeviation="25.317"/><feComposite in2="hardAlpha" operator="out"/><feColorMatrix values="0 0 0 0 0.0156863 0 0 0 0 0.0235294 0 0 0 0 0.0588235 0 0 0 0.08 0"/><feBlend in2="BackgroundImageFix" result="effect1_dropShadow_2_7253"/><feBlend in="SourceGraphic" in2="effect1_dropShadow_2_7253" result="shape"/></filter><filter id="filter1_d_2_7253" x="-8.113" y="175.936" width="121.642" height="142.379" filterUnits="userSpaceOnUse" color-interpolation-filters="sRGB"><feFlood flood-opacity="0" result="BackgroundImageFix"/><feColorMatrix in="SourceAlpha" values="0 0 0 0 0 0 0 0 0 0 0 0 0 0 0 0 0 0 127 0" result="hardAlpha"/><feOffset dy="26.571"/><feGaussianBlur stdDeviation="25.317"/><feComposite in2="hardAlpha" operator="out"/><feColorMatrix values="0 0 0 0 0.0156863 0 0 0 0 0.0235294 0 0 0 0 0.0588235 0 0 0 0.08 0"/><feBlend in2="BackgroundImageFix" result="effect1_dropShadow_2_7253"/><feBlend in="SourceGraphic" in2="effect1_dropShadow_2_7253" result="shape"/></filter><filter id="filter2_d_2_7253" x="143.791" y="196.992" width="121.323" height="121.323" filterUnits="userSpaceOnUse" color-interpolation-filters="sRGB"><feFlood flood-opacity="0" result="BackgroundImageFix"/><feColorMatrix in="SourceAlpha" values="0 0 0 0 0 0 0 0 0 0 0 0 0 0 0 0 0 0 127 0" result="hardAlpha"/><feOffset dy="26.571"/><feGaussianBlur stdDeviation="25.317"/><feComposite in2="hardAlpha" operator="out"/><feColorMatrix values="0 0 0 0 0.0156863 0 0 0 0 0.0235294 0 0 0 0 0.0588235 0 0 0 0.08 0"/><feBlend in2="BackgroundImageFix" result="effect1_dropShadow_2_7253"/><feBlend in="SourceGraphic" in2="effect1_dropShadow_2_7253" result="shape"/></filter><filter id="filter3_bd_2_7253" x="128.751" y="157.125" width="56.149" height="56.149" filterUnits="userSpaceOnUse" color-interpolation-filters="sRGB"><feFlood flood-opacity="0" result="BackgroundImageFix"/><feGaussianBlur in="BackgroundImage" stdDeviation=".501"/><feComposite in2="SourceAlpha" operator="in" result="effect1_backgroundBlur_2_7253"/><feColorMatrix in="SourceAlpha" values="0 0 0 0 0 0 0 0 0 0 0 0 0 0 0 0 0 0 127 0" result="hardAlpha"/><feOffset dx="4.011" dy="8.021"/><feGaussianBlur stdDeviation="8.021"/><feComposite in2="hardAlpha" operator="out"/><feColorMatrix values="0 0 0 0 0.419608 0 0 0 0 0.447059 0 0 0 0 0.501961 0 0 0 0.1 0"/><feBlend in2="effect1_backgroundBlur_2_7253" result="effect2_dropShadow_2_7253"/><feBlend in="SourceGraphic" in2="effect2_dropShadow_2_7253" result="shape"/></filter><filter id="filter4_d_2_7253" x="131.257" y="157.627" width="43.115" height="43.115" filterUnits="userSpaceOnUse" color-interpolation-filters="sRGB"><feFlood flood-opacity="0" result="BackgroundImageFix"/><feColorMatrix in="SourceAlpha" values="0 0 0 0 0 0 0 0 0 0 0 0 0 0 0 0 0 0 127 0" result="hardAlpha"/><feOffset dy="2.005"/><feGaussianBlur stdDeviation="8.021"/><feComposite in2="hardAlpha" operator="out"/><feColorMatrix values="0 0 0 0 0.419608 0 0 0 0 0.447059 0 0 0 0 0.501961 0 0 0 0.4 0"/><feBlend in2="BackgroundImageFix" result="effect1_dropShadow_2_7253"/><feBlend in="SourceGraphic" in2="effect1_dropShadow_2_7253" result="shape"/></filter><filter id="filter5_d_2_7253" x="141.785" y="175.936" width="98.197" height="67.155" filterUnits="userSpaceOnUse" color-interpolation-filters="sRGB"><feFlood flood-opacity="0" result="BackgroundImageFix"/><feColorMatrix in="SourceAlpha" values="0 0 0 0 0 0 0 0 0 0 0 0 0 0 0 0 0 0 127 0" result="hardAlpha"/><feOffset dy="1.003"/><feGaussianBlur stdDeviation="12.533"/><feComposite in2="hardAlpha" operator="out"/><feColorMatrix values="0 0 0 0 0.419608 0 0 0 0 0.447059 0 0 0 0 0.501961 0 0 0 0.12 0"/><feBlend in2="BackgroundImageFix" result="effect1_dropShadow_2_7253"/><feBlend in="SourceGraphic" in2="effect1_dropShadow_2_7253" result="shape"/></filter><radialGradient id="paint0_radial_2_7253" cx="0" cy="0" r="1" gradientUnits="userSpaceOnUse" gradientTransform="matrix(10.31243 -10.40798 11.60089 11.49439 148.017 182.072)"><stop stop-color="#F18C53"/><stop offset="1" stop-color="#E83A64"/></radialGradient><radialGradient id="paint1_radial_2_7253" cx="0" cy="0" r="1" gradientUnits="userSpaceOnUse" gradientTransform="rotate(-49.374 188.691 -44.673) scale(21.2971 23.4629)"><stop stop-color="#F18C53"/><stop offset="1" stop-color="#E83A64"/></radialGradient><radialGradient id="paint2_radial_2_7253" cx="0" cy="0" r="1" gradientUnits="userSpaceOnUse" gradientTransform="rotate(-56.433 220.39 -20.77) scale(61.8873 63.5627)"><stop stop-color="#F18C53"/><stop offset="1" stop-color="#E83A64"/></radialGradient><clipPath id="clip0_2_7253"><rect x="34.5" y="48" width="188" height="407.083" rx="24" fill="#fff"/></clipPath></defs></svg>