<svg width="266" height="302" fill="none" xmlns="http://www.w3.org/2000/svg"><path d="M37 1.5h182.572C244.109 1.5 264 21.391 264 45.928V161c0 62.684-50.816 113.5-113.5 113.5S37 223.684 37 161V1.5z" stroke="#F9FAFB" stroke-width="3"/><path d="M.5 12h204.742c26.652 0 48.258 21.606 48.258 48.258V175.5c0 69.864-56.636 126.5-126.5 126.5S.5 245.364.5 175.5V12z" fill="#F0F4F9"/><mask id="a" style="mask-type:alpha" maskUnits="userSpaceOnUse" x="13" y="25" width="230" height="263"><path d="M13.5 25h229v148.5c0 63.237-51.263 114.5-114.5 114.5S13.5 236.737 13.5 173.5V25z" fill="#fff"/></mask><g clip-path="url(#clip0_2_7693)" mask="url(#a)"><rect x="34.5" y="48" width="188" height="407" rx="24" fill="#fff"/><rect x="42.618" y="67.788" width="23.34" height="23.34" rx="11.67" stroke="#EEF1F4" stroke-width=".507"/><path d="M55.302 82.137l-2.206-2.205a.672.672 0 010-.948l2.206-2.205" stroke="#12143D" stroke-width=".761" stroke-miterlimit="10" stroke-linecap="round" stroke-linejoin="round"/><path d="M100.214 77.945h-2.728v5.439h1.153v-1.705h1.575c1.047 0 1.891-.763 1.891-1.867 0-1.072-.828-1.867-1.891-1.867zm-1.575 2.638v-1.518h1.486c.446 0 .811.3.811.747 0 .47-.357.771-.811.771h-1.486zm3.835-3.044v1.283h1.095v-1.283h-1.095zm0 1.802v4.043h1.095v-4.043h-1.095zm5.661 1.535c-.163-.967-.942-1.657-2.054-1.657-1.307 0-2.127.942-2.127 2.144 0 1.201.82 2.143 2.127 2.143 1.104 0 1.883-.698 2.054-1.665h-1.145c-.13.358-.471.601-.901.601-.642 0-1.039-.487-1.039-1.08 0-.592.397-1.087 1.039-1.087.438 0 .771.251.901.6h1.145zm4.252-1.535h-1.194l-.795 1.42h-.837V77.54h-1.096v5.845h1.096V81.77h1.332c.203 0 .325.105.325.3v1.315h1.096v-1.68c0-.528-.325-.853-.764-.926l.837-1.437zm5.102-1.396h-2.728v5.439h1.153v-1.705h1.575c1.047 0 1.891-.763 1.891-1.867 0-1.072-.828-1.867-1.891-1.867zm-1.575 2.638v-1.518h1.486c.446 0 .811.3.811.747 0 .47-.357.771-.811.771h-1.486zm6.744-.722h-.04c-.252-.366-.715-.642-1.299-.642-1.145-.008-1.933.902-1.933 2.152 0 1.274.829 2.135 1.924 2.135.593-.008 1.056-.284 1.308-.658h.04v.536h1.088v-4.043h-1.088v.52zm-1.08 2.606c-.641 0-1.087-.471-1.087-1.104 0-.634.446-1.105 1.087-1.105.634 0 1.08.48 1.08 1.105 0 .6-.43 1.104-1.08 1.104zm4.881-3.126c-.471 0-.828.236-.974.633h-.04v-.633h-1.04v4.043h1.096v-2.013c0-.56.374-.934.902-.934h.909v-1.096h-.853zm5.05 0h-1.194l-.795 1.42h-.836V77.54h-1.096v5.845h1.096V81.77h1.331c.203 0 .325.105.325.3v1.315h1.096v-1.68c0-.528-.325-.853-.763-.926l.836-1.437zm.545-1.802v1.283h1.096v-1.283h-1.096zm0 1.802v4.043h1.096v-4.043h-1.096zm4.078-.113c-.504 0-.958.227-1.226.6h-.041v-.487h-1.063v4.043h1.096V81.29c0-.61.422-.99.917-.99.455 0 .828.324.828.908v2.176h1.096v-2.338c0-1.161-.625-1.819-1.607-1.819zm5.196.633h-.04c-.252-.366-.715-.642-1.299-.642-1.145-.008-1.932.902-1.932 2.152 0 1.274.828 2.135 1.924 2.135.592-.008 1.055-.284 1.307-.658h.04v.698c0 .236-.146.366-.381.366h-2.363v1.096h2.598c.788 0 1.234-.43 1.234-1.21v-4.457h-1.088v.52zm-1.079 2.606c-.642 0-1.088-.471-1.088-1.104 0-.634.446-1.105 1.088-1.105.633 0 1.079.48 1.079 1.105 0 .6-.43 1.104-1.079 1.104zm5.995-4.522c-1.055 0-1.607.755-1.607 1.534 0 .625.39 1.267 1.226 1.47l1.948.462c.252.057.365.236.365.414 0 .22-.17.43-.454.43h-2.874v1.129h2.914c1.08 0 1.64-.78 1.64-1.575 0-.641-.389-1.299-1.234-1.494l-1.94-.454c-.227-.057-.341-.236-.341-.406 0-.203.146-.39.439-.39h2.719v-1.12h-2.801zm5.996 1.274c-.576 0-1.047.276-1.299.642h-.04v-.52h-1.088v5.667h1.088v-2.16h.04c.252.374.715.65 1.307.658 1.096 0 1.924-.86 1.924-2.135 0-1.25-.787-2.16-1.932-2.152zm-.26 3.248c-.649 0-1.079-.504-1.079-1.104 0-.626.446-1.105 1.079-1.105.642 0 1.088.471 1.088 1.105 0 .633-.446 1.104-1.088 1.104zm4.565 1.039c1.315 0 2.176-.934 2.176-2.143 0-1.202-.853-2.144-2.176-2.144-1.323 0-2.176.942-2.176 2.144 0 1.21.861 2.143 2.176 2.143zm0-1.064c-.65 0-1.08-.479-1.08-1.08 0-.6.43-1.087 1.08-1.087.649 0 1.08.487 1.08 1.088 0 .6-.439 1.08-1.08 1.08zm5.514-3.1h-1.664v-1.397h-1.096v1.396h-.568v1.056h.568v1.802c0 .73.479 1.185 1.218 1.185h1.542V82.32h-1.339c-.195 0-.325-.113-.325-.308v-1.615h1.664V79.34z" fill="#12143D"/><rect x="42.618" y="101.783" width="41.236" height="20.296" rx="4.059" fill="#E83A64"/><path d="M52.672 110.352H50.87v.84h.938v3.239h.864v-4.079zm1.45 1.047c-.554 0-.98.371-.98.895 0 .408.304.731.743.822l1.157.25a.135.135 0 01.103.133c0 .08-.055.134-.134.134H53.27v.798h1.753c.554 0 .987-.377.987-.913 0-.426-.293-.743-.75-.841l-1.138-.231a.13.13 0 01-.103-.128c0-.073.048-.128.128-.128h1.643v-.791h-1.668zm4.5 0h-1.249v-1.047h-.822v1.047h-.426v.791h.426v1.352c0 .548.36.889.914.889h1.157v-.798h-1.005c-.146 0-.244-.085-.244-.231v-1.212h1.249v-.791zm5.159-1.047h-3.118v4.079h.865v-1.577h2.028v-.804h-2.028v-.858h2.253v-.84zm.358 3.202c0 .548.329.877.907.877h.566v-.798h-.407c-.153 0-.244-.085-.244-.225v-3.361h-.822v3.507zm3.264.968c.986 0 1.631-.7 1.631-1.607 0-.901-.639-1.607-1.631-1.607-.993 0-1.632.706-1.632 1.607 0 .907.645 1.607 1.632 1.607zm0-.797c-.487 0-.81-.359-.81-.81 0-.451.323-.816.81-.816.487 0 .81.365.81.816 0 .451-.33.81-.81.81zm3.55.797c.986 0 1.631-.7 1.631-1.607 0-.901-.64-1.607-1.632-1.607-.992 0-1.631.706-1.631 1.607 0 .907.645 1.607 1.631 1.607zm0-.797c-.488 0-.81-.359-.81-.81 0-.451.322-.816.81-.816.486 0 .81.365.81.816 0 .451-.33.81-.81.81zm3.587-2.326c-.353 0-.621.176-.73.475h-.031v-.475h-.78v3.032h.822v-1.51c0-.42.28-.7.676-.7h.682v-.822h-.64z" fill="#fff"/><rect x="87.914" y="101.783" width="44.143" height="20.296" rx="4.059" fill="#F9FAFB"/><rect x="136.115" y="101.783" width="43.128" height="20.296" rx="4.059" fill="#F9FAFB"/><rect x="183.303" y="101.783" width="43.636" height="20.296" rx="4.059" fill="#F9FAFB"/><rect x="73.061" y="135" width="24.236" height="20.296" rx="6.089" fill="#F9FAFB"/><path d="M82.89 143.288h.938l1.638 4.36h-.907l-.36-1.041h-1.68l-.359 1.041h-.907l1.638-4.36zm1.042 2.564l-.39-1.09-.158-.53h-.049l-.158.53-.39 1.09h1.145zm3.567-.883c.158 0 .312.034.462.103a1.298 1.298 0 01.682.7c.073.167.11.35.11.548 0 .207-.04.398-.122.573a1.512 1.512 0 01-.798.749 1.49 1.49 0 01-.554.103c-.227 0-.432-.038-.614-.115a1.634 1.634 0 01-.475-.317 1.476 1.476 0 01-.305-.463 1.537 1.537 0 01-.103-.56c0-.28.054-.536.164-.767.114-.236.256-.475.426-.719l1.01-1.443.616.427-.853 1.205.03.037a.796.796 0 01.324-.061zm-.232 2.039a.74.74 0 00.262-.048.687.687 0 00.378-.353.646.646 0 00.06-.28.648.648 0 00-.06-.281.649.649 0 00-.378-.359.74.74 0 00-.755.14.726.726 0 00-.158.219.708.708 0 00-.055.281.7.7 0 00.055.28.75.75 0 00.158.213.782.782 0 00.225.14.756.756 0 00.268.048zm-41.123.574v-.841h-2.26v-.834h1.998v-.804h-1.997v-.761h2.259v-.84H43.02v4.08h3.123zm2.26-3.118c-.377 0-.718.171-.919.451h-.03v-.366h-.798v3.033h.822v-1.571c0-.457.317-.743.688-.743.341 0 .621.243.621.682v1.632h.822v-1.754c0-.871-.469-1.364-1.206-1.364zm4.002.085h-1.248v-1.047h-.822v1.047h-.426v.792h.426v1.352c0 .548.36.889.914.889h1.156v-.798h-1.004c-.146 0-.244-.085-.244-.231v-1.212h1.248v-.792zm2.017 0c-.353 0-.621.177-.73.475h-.031v-.475h-.78v3.033h.823v-1.51c0-.421.28-.701.675-.701h.682v-.822h-.639zm2.592 2.302l-.913-2.302h-.901l1.394 3.392a.365.365 0 01-.207.055h-.84v.803h.864c.475 0 .816-.268.975-.724l1.205-3.526h-.834l-.743 2.302zm72.874 25.69c-.268 0-.509-.055-.724-.165a1.732 1.732 0 01-.554-.462 2.161 2.161 0 01-.347-.688 2.974 2.974 0 01-.122-.865c0-.308.041-.595.122-.858.081-.268.197-.5.347-.695.154-.194.339-.347.554-.456a1.52 1.52 0 01.724-.171c.268 0 .51.057.725.171.215.109.398.262.548.456.154.195.272.427.353.695.081.263.122.55.122.858 0 .309-.041.597-.122.865a2.093 2.093 0 01-.353.688c-.15.194-.333.349-.548.462a1.57 1.57 0 01-.725.165zm0-.755a.768.768 0 00.396-.104.942.942 0 00.298-.298c.086-.13.149-.282.189-.457.045-.174.067-.363.067-.566 0-.207-.022-.396-.067-.566a1.308 1.308 0 00-.189-.451.867.867 0 00-.298-.298.735.735 0 00-.396-.11.743.743 0 00-.401.11.87.87 0 00-.299.298 1.535 1.535 0 00-.189.451c-.04.17-.06.359-.06.566 0 .203.02.392.06.566.045.175.108.327.189.457a.945.945 0 00.299.298.776.776 0 00.401.104zm3.229.657v-3.227l-.736.311-.293-.676 1.224-.572h.603v4.164h-.798zm-3.229 40.182c-.268 0-.509-.055-.724-.165a1.732 1.732 0 01-.554-.462 2.161 2.161 0 01-.347-.688 2.974 2.974 0 01-.122-.865c0-.308.041-.595.122-.858.081-.268.197-.5.347-.695.154-.194.339-.347.554-.456a1.52 1.52 0 01.724-.171c.268 0 .51.057.725.171.215.109.398.262.548.456.154.195.272.427.353.695.081.263.122.55.122.858 0 .309-.041.597-.122.865a2.093 2.093 0 01-.353.688c-.15.194-.333.349-.548.462a1.57 1.57 0 01-.725.165zm0-.755a.768.768 0 00.396-.104.942.942 0 00.298-.298c.086-.13.149-.282.189-.457.045-.174.067-.363.067-.566 0-.207-.022-.396-.067-.566a1.308 1.308 0 00-.189-.451.867.867 0 00-.298-.298.735.735 0 00-.396-.11.743.743 0 00-.401.11.87.87 0 00-.299.298 1.535 1.535 0 00-.189.451c-.04.17-.06.359-.06.566 0 .203.02.392.06.566.045.175.108.327.189.457a.945.945 0 00.299.298.776.776 0 00.401.104zm3.727.755c-.17 0-.335-.023-.493-.067a1.488 1.488 0 01-.426-.201 1.543 1.543 0 01-.347-.347 1.569 1.569 0 01-.225-.481l.748-.299a.873.873 0 00.268.463.731.731 0 00.475.152.814.814 0 00.244-.036.662.662 0 00.201-.116.549.549 0 00.134-.17.493.493 0 00.055-.232.499.499 0 00-.201-.42c-.13-.101-.311-.152-.542-.152h-.36v-.725h.329c.081 0 .161-.01.238-.03a.617.617 0 00.201-.091.462.462 0 00.14-.165.505.505 0 00.054-.237.422.422 0 00-.146-.335.563.563 0 00-.395-.134c-.179 0-.317.049-.414.146a.75.75 0 00-.195.317l-.731-.299c.037-.101.091-.205.164-.31a1.343 1.343 0 01.67-.505c.15-.057.323-.086.518-.086.199 0 .379.029.542.086.166.056.308.135.426.237.118.097.209.215.274.353.065.134.097.28.097.439 0 .121-.016.231-.048.328a1.026 1.026 0 01-.116.262.928.928 0 01-.359.329v.049c.194.077.355.201.481.371.13.17.194.386.194.645 0 .183-.034.352-.103.506-.069.15-.168.282-.298.396-.126.113-.278.2-.457.261a1.739 1.739 0 01-.597.098zm71.889-40.084c-.268 0-.509-.055-.724-.165a1.735 1.735 0 01-.555-.462 2.182 2.182 0 01-.347-.688 2.975 2.975 0 01-.121-.865c0-.308.04-.595.121-.858.082-.268.197-.5.347-.695.155-.194.339-.347.555-.456a1.52 1.52 0 01.724-.171c.268 0 .51.057.725.171.215.109.397.262.548.456.154.195.272.427.353.695.081.263.122.55.122.858 0 .309-.041.597-.122.865a2.093 2.093 0 01-.353.688 1.679 1.679 0 01-.548.462 1.57 1.57 0 01-.725.165zm0-.755a.77.77 0 00.396-.104.942.942 0 00.298-.298c.085-.13.148-.282.189-.457.045-.174.067-.363.067-.566 0-.207-.022-.396-.067-.566a1.348 1.348 0 00-.189-.451.867.867 0 00-.298-.298.738.738 0 00-.396-.11.749.749 0 00-.402.11.875.875 0 00-.298.298 1.535 1.535 0 00-.189.451c-.04.17-.061.359-.061.566 0 .203.021.392.061.566.045.175.108.327.189.457a.952.952 0 00.298.298.782.782 0 00.402.104zm2.237.657v-.724a149.95 149.95 0 00.925-.92l.25-.249.207-.207.14-.152.17-.207a.841.841 0 00.122-.177.752.752 0 00.098-.371.455.455 0 00-.159-.347c-.105-.102-.249-.153-.432-.153s-.325.053-.426.159a.774.774 0 00-.207.347l-.725-.299c.033-.109.085-.221.159-.335a1.355 1.355 0 01.681-.535c.159-.061.335-.092.53-.092.211 0 .402.033.572.098.171.061.315.146.433.255a1.168 1.168 0 01.371.865c0 .26-.065.499-.195.718-.125.216-.28.417-.462.603l-.524.524c-.138.138-.294.292-.469.463l.025.036h1.686v.7h-2.77zm-2.237 40.182c-.268 0-.509-.055-.724-.165a1.735 1.735 0 01-.555-.462 2.182 2.182 0 01-.347-.688 2.975 2.975 0 01-.121-.865c0-.308.04-.595.121-.858.082-.268.197-.5.347-.695.155-.194.339-.347.555-.456a1.52 1.52 0 01.724-.171c.268 0 .51.057.725.171.215.109.397.262.548.456.154.195.272.427.353.695.081.263.122.55.122.858 0 .309-.041.597-.122.865a2.093 2.093 0 01-.353.688 1.679 1.679 0 01-.548.462 1.57 1.57 0 01-.725.165zm0-.755a.77.77 0 00.396-.104.942.942 0 00.298-.298c.085-.13.148-.282.189-.457.045-.174.067-.363.067-.566 0-.207-.022-.396-.067-.566a1.348 1.348 0 00-.189-.451.867.867 0 00-.298-.298.738.738 0 00-.396-.11.749.749 0 00-.402.11.875.875 0 00-.298.298 1.535 1.535 0 00-.189.451c-.04.17-.061.359-.061.566 0 .203.021.392.061.566.045.175.108.327.189.457a.952.952 0 00.298.298.782.782 0 00.402.104zm4.184.657v-.767h-1.924v-.645l1.851-2.752h.864v2.654h.524v.743h-.524v.767h-.791zm0-2.977h-.049l-.992 1.467h1.041v-1.467z" fill="#12143D"/><rect x="73.061" y="249.163" width="24.236" height="20.296" rx="6.089" fill="#F9FAFB"/><path d="M82.89 257.451h.938l1.638 4.359h-.907l-.36-1.041h-1.68l-.359 1.041h-.907l1.638-4.359zm1.042 2.563l-.39-1.09-.158-.529h-.049l-.158.529-.39 1.09h1.145zm2.05 1.522l1.736-3.099-.018-.036h-1.918l.012-.755h2.825v.791l-1.967 3.471-.67-.372z" fill="#12143D"/><path stroke="#EBF1F8" stroke-width=".507" stroke-linecap="round" d="M66.212 165.968h150.187M66.212 200.707h150.187M66.212 240.283h150.187m-76.094 0v-78.645M76.389 275.746h140.492"/><path d="M86.159 188.656a9.046 9.046 0 00-1.054.04l-4.11.374c-2.675.263-6.111-.656-8.011-2.558-1.634-1.634-1.887-4.173-1.887-6.666v-1.077c0-2.492.264-5.035 1.887-6.668 1.9-1.899 5.336-2.811 8.01-2.563l4.119.382c.35.032.702.044 1.054.037l19.565-.498c2.991 0 11.27 2.423 11.27 5.414v8.867c0 2.993-8.279 5.417-11.27 5.417l-19.573-.501z" fill="#FCEBEF"/><path d="M87.717 171.39c-.332 0-1.845-1.002-2.188-1.03l-3.923-.364c-2.55-.237-5.823.632-7.642 2.442-1.552 1.557-1.794 3.986-1.794 6.357v1.028c0 2.371.242 4.797 1.8 6.354 1.813 1.813 5.085 2.679 7.641 2.445l3.924-.364c.332-.031 1.844-1.038 2.187-1.03h18.197c2.852 0 10.014-.84 10.014-3.688v-8.459c0-2.851-7.155-3.689-10.014-3.689l-18.202-.002z" fill="#EA4D73"/><path d="M87.008 188.015h.914l.506 2.051s-1.42.347-1.42-2.051z" fill="#FCEBEF"/><path d="M96.644 187.51h.17c4.554 0 9.1-.284 9.1-.284s-3.315-1.136-4.546-1.136H96.91c-.111.469-.203.943-.266 1.42zm-.261-1.42H92.23c-.709 0-4.513 1.135-4.513 1.135s3.994.264 8.247.282c.116-.479.264-.951.42-1.417zm.261-14.985h.17c4.554 0 9.1.284 9.1.284s-3.315 1.136-4.546 1.136H96.91a14.473 14.473 0 01-.266-1.42zm-.261 1.42H92.23c-.709 0-4.513-1.136-4.513-1.136s3.994-.263 8.247-.282c.116.48.264.949.42 1.418z" fill="#45474A"/><path d="M87.008 170.599h.914l.506-2.053s-1.42-.345-1.42 2.053z" fill="#FCEBEF"/><path d="M91 185.569l-6.588 1.704s-2.509-1.799-2.509-7.966c0-6.168 2.509-7.965 2.509-7.965l6.587 1.702s-.806 3.425-.806 6.263c0 2.837.806 6.262.806 6.262zm14.569-11.99c.426 1.881.668 3.799.724 5.728a29.902 29.902 0 01-.724 5.73.447.447 0 00.426.55l6.003.211a.458.458 0 00.403-.221c1.428-2.408 1.231-6.27 1.231-6.27s.197-3.86-1.231-6.268a.454.454 0 00-.403-.221l-6.003.208a.454.454 0 00-.427.355.456.456 0 00.001.198z" fill="#45474A"/><path d="M74.549 187.273c-.35-1.412-1.96-2.324-2.372-2.266.225.411.506.788.836 1.12.457.45.974.836 1.536 1.146zm0-15.931c-.35 1.41-1.96 2.321-2.372 2.266a4.84 4.84 0 01.836-1.12 6.95 6.95 0 011.536-1.146z" fill="#E9E8D8"/><path d="M163.865 228.252a9.284 9.284 0 00-1.054.039l-4.11.374c-2.675.264-6.111-.656-8.011-2.558-1.634-1.633-1.887-4.173-1.887-6.665v-1.077c0-2.493.264-5.035 1.887-6.668 1.9-1.9 5.336-2.811 8.011-2.564l4.118.382c.351.033.702.045 1.054.037l19.565-.498c2.991 0 11.27 2.424 11.27 5.414v8.868c0 2.993-8.279 5.416-11.27 5.416l-19.573-.5z" fill="#FDF3ED"/><path d="M165.423 210.985c-.332 0-1.845-1.001-2.187-1.03l-3.924-.363c-2.55-.238-5.823.632-7.641 2.442-1.552 1.557-1.795 3.986-1.795 6.357v1.027c0 2.371.243 4.798 1.8 6.355 1.813 1.812 5.086 2.679 7.642 2.444l3.923-.363c.332-.032 1.845-1.038 2.187-1.03h18.198c2.851 0 10.013-.841 10.013-3.689v-8.459c0-2.85-7.154-3.688-10.013-3.688l-18.203-.003z" fill="#F18C53"/><path d="M164.714 227.611h.914l.506 2.05s-1.42.348-1.42-2.05z" fill="#FDF3ED"/><path d="M174.35 227.106h.171c4.553 0 9.099-.285 9.099-.285s-3.315-1.136-4.546-1.136h-4.458c-.111.469-.203.944-.266 1.421zm-.261-1.421h-4.152c-.709 0-4.514 1.136-4.514 1.136s3.995.264 8.248.282c.115-.48.263-.951.418-1.418zm.261-14.985h.171c4.553 0 9.099.285 9.099.285s-3.315 1.135-4.546 1.135h-4.458a14.473 14.473 0 01-.266-1.42zm-.261 1.42h-4.152c-.709 0-4.514-1.135-4.514-1.135s3.995-.264 8.248-.282c.115.479.263.948.418 1.417z" fill="#45474A"/><path d="M164.714 210.194h.914l.506-2.052s-1.42-.346-1.42 2.052z" fill="#FDF3ED"/><path d="M168.706 225.164l-6.588 1.705s-2.508-1.8-2.508-7.967 2.508-7.964 2.508-7.964l6.588 1.702s-.807 3.425-.807 6.262c0 2.837.807 6.262.807 6.262zm14.569-11.989c.426 1.881.669 3.799.724 5.727a29.803 29.803 0 01-.724 5.73.456.456 0 00.083.376.45.45 0 00.344.175l6.002.211a.458.458 0 00.403-.222c1.429-2.408 1.231-6.27 1.231-6.27s.198-3.859-1.231-6.267a.447.447 0 00-.403-.222l-6.002.208a.476.476 0 00-.192.05.465.465 0 00-.236.306.456.456 0 00.001.198z" fill="#45474A"/><path d="M152.255 226.869c-.35-1.413-1.96-2.324-2.371-2.266.224.411.505.788.835 1.12.458.45.974.836 1.536 1.146zm0-15.931c-.35 1.409-1.96 2.321-2.371 2.266.223-.412.504-.789.835-1.12a6.965 6.965 0 011.536-1.146z" fill="#E9E8D8"/><path d="M163.866 303.239a9.267 9.267 0 00-1.054.039l-4.111.374c-2.675.264-6.111-.656-8.011-2.558-1.633-1.633-1.886-4.173-1.886-6.665v-1.078c0-2.492.263-5.034 1.886-6.667 1.9-1.9 5.336-2.811 8.011-2.564l4.118.382c.351.033.703.045 1.054.037l19.566-.498c2.99 0 11.27 2.424 11.27 5.414v8.868c0 2.993-8.28 5.416-11.27 5.416l-19.573-.5z" fill="#E1E8EF"/><path d="M165.423 285.972c-.332 0-1.844-1.001-2.187-1.03l-3.923-.364c-2.551-.237-5.824.633-7.642 2.443-1.552 1.557-1.795 3.986-1.795 6.357v1.027c0 2.371.243 4.798 1.8 6.355 1.813 1.812 5.086 2.679 7.642 2.444l3.923-.363c.332-.032 1.845-1.038 2.187-1.03h18.198c2.851 0 10.013-.841 10.013-3.689v-8.459c0-2.85-7.154-3.688-10.013-3.688l-18.203-.003z" fill="#E9EDF0"/><path d="M174.35 285.687h.171c4.554 0 9.099.285 9.099.285s-3.315 1.135-4.545 1.135h-4.459c-.11-.469-.203-.946-.266-1.42zm-.26 1.42h-4.153c-.709 0-4.514-1.135-4.514-1.135s3.995-.264 8.248-.282c.116.479.263.948.419 1.417z" fill="#45474A"/><path d="M164.714 285.181h.914l.506-2.052s-1.42-.346-1.42 2.052z" fill="#E1E8EF"/><path d="M168.706 300.151l-6.588 1.705s-2.508-1.8-2.508-7.967 2.508-7.964 2.508-7.964l6.588 1.702s-.806 3.425-.806 6.262c0 2.837.806 6.262.806 6.262zm14.569-11.989c.426 1.881.669 3.799.725 5.727a29.883 29.883 0 01-.725 5.73.456.456 0 00.083.376.445.445 0 00.344.175l6.003.21a.446.446 0 00.403-.221c1.428-2.408 1.23-6.27 1.23-6.27s.198-3.859-1.23-6.267a.457.457 0 00-.403-.222l-6.003.208a.453.453 0 00-.427.554z" fill="#45474A"/><path d="M152.256 285.925c-.351 1.409-1.961 2.321-2.372 2.266.223-.412.504-.789.835-1.12a6.948 6.948 0 011.537-1.146z" fill="#E9E8D8"/><rect x="65.958" y="275.547" width="75.601" height="39.576" rx="8.118" fill="url(#paint0_radial_2_7693)"/><path d="M129.889 286.703c-.268 0-.509-.054-.724-.164a1.735 1.735 0 01-.554-.463 2.151 2.151 0 01-.347-.688 2.972 2.972 0 01-.122-.864c0-.309.041-.595.122-.859.081-.268.197-.499.347-.694.154-.195.339-.347.554-.457.215-.113.456-.17.724-.17.268 0 .51.057.725.17.215.11.398.262.548.457.154.195.272.426.353.694.081.264.122.55.122.859 0 .308-.041.596-.122.864a2.083 2.083 0 01-.353.688c-.15.195-.333.349-.548.463a1.57 1.57 0 01-.725.164zm0-.755a.767.767 0 00.396-.103.952.952 0 00.298-.298c.086-.13.149-.283.189-.457.045-.175.067-.363.067-.566 0-.207-.022-.396-.067-.567a1.311 1.311 0 00-.189-.45.87.87 0 00-.298-.299.735.735 0 00-.396-.109.742.742 0 00-.401.109.872.872 0 00-.299.299 1.54 1.54 0 00-.189.45c-.04.171-.06.36-.06.567 0 .203.02.391.06.566.045.174.108.327.189.457a.955.955 0 00.299.298.775.775 0 00.401.103zm3.229.658v-3.227l-.736.31-.293-.675 1.224-.573h.603v4.165h-.798z" fill="#fff"/></g><path d="M15 26.5h183.667C222.047 26.5 241 45.453 241 68.833V173.5c0 62.408-50.592 113-113 113s-113-50.592-113-113v-147z" stroke="#fff" stroke-width="3"/><defs><radialGradient id="paint0_radial_2_7693" cx="0" cy="0" r="1" gradientUnits="userSpaceOnUse" gradientTransform="matrix(70.68687 -37.34672 34.38902 65.08877 70.872 312.894)"><stop stop-color="#F18C53"/><stop offset="1" stop-color="#E83A64"/></radialGradient><clipPath id="clip0_2_7693"><rect x="34.5" y="48" width="188" height="407" rx="24" fill="#fff"/></clipPath></defs></svg>