<svg width="24" height="25" fill="none" xmlns="http://www.w3.org/2000/svg"><path d="M18.47 16.928l.39 3.16c.1.83-.79 1.41-1.5.98l-3.46-2.06c-.24-.14-.3-.44-.17-.68.5-.92.77-1.96.77-3 0-3.66-3.14-6.64-7-6.64-.79 0-1.56.12-2.28.36a.505.505 0 01-.64-.6c.91-3.64 4.41-6.35 8.59-6.35 4.88 0 8.83 3.69 8.83 8.24 0 2.7-1.39 5.09-3.53 6.59z" fill="#fff"/><path d="M13 15.328c0 1.19-.44 2.29-1.18 3.16-.99 1.2-2.56 1.97-4.32 1.97l-2.61 1.55c-.44.27-1-.1-.94-.61l.25-1.97c-1.34-.93-2.2-2.42-2.2-4.1 0-1.76.94-3.31 2.38-4.23.89-.58 1.96-.91 3.12-.91 3.04 0 5.5 2.3 5.5 5.14z" fill="#fff"/></svg>