<svg width="48" height="48" fill="none" xmlns="http://www.w3.org/2000/svg"><rect width="48" height="48" rx="24" fill="#fff"/><path d="M22.333 15.75a.75.75 0 100 1.5v-1.5zm3.334 1.5a.75.75 0 000-1.5v1.5zm-5-.833h6.666v-1.5h-6.666v1.5zm7.583.916v13.334h1.5V17.333h-1.5zm-.917 14.25h-6.666v1.5h6.666v-1.5zm-7.583-.916V17.333h-1.5v13.334h1.5zm.917.916a.917.917 0 01-.917-.916h-1.5a2.417 2.417 0 002.417 2.416v-1.5zm7.583-.916c0 .506-.41.916-.917.916v1.5a2.417 2.417 0 002.417-2.416h-1.5zm-.917-14.25c.507 0 .917.41.917.916h1.5a2.417 2.417 0 00-2.417-2.416v1.5zm-6.666-1.5a2.417 2.417 0 00-2.417 2.416h1.5c0-.506.41-.916.917-.916v-1.5zm1.666 2.333h3.334v-1.5h-3.334v1.5z" fill="#17181B"/></svg>