<svg width="20" height="20" fill="none" xmlns="http://www.w3.org/2000/svg"><path d="M17.567 7.15v5.7c0 .933-.5 1.8-1.309 2.275l-4.95 2.858a2.636 2.636 0 01-2.625 0l-4.95-2.858a2.625 2.625 0 01-1.308-2.275v-5.7c0-.933.5-1.8 1.308-2.275l4.95-2.858a2.636 2.636 0 012.625 0l4.95 2.858a2.635 2.635 0 011.309 2.275z" stroke="#17181B" stroke-width="1.5" stroke-linecap="round" stroke-linejoin="round"/><path d="M10 9.167a1.942 1.942 0 100-3.884 1.942 1.942 0 000 3.884zm3.333 4.716c0-1.5-1.491-2.716-3.333-2.716s-3.333 1.216-3.333 2.716" stroke="#17181B" stroke-width="1.5" stroke-linecap="round" stroke-linejoin="round"/></svg>