<svg width="20" height="21" fill="none" xmlns="http://www.w3.org/2000/svg"><path fill-rule="evenodd" clip-rule="evenodd" d="M3.074 3.637A3.096 3.096 0 00.17 6.503C.08 7.66 0 9 0 10.098c0 1.099.08 2.438.17 3.595a3.096 3.096 0 002.904 2.867 113 113 0 006.926.205 113 113 0 006.927-.205 3.096 3.096 0 002.902-2.867c.09-1.157.171-2.496.171-3.595 0-1.098-.08-2.438-.17-3.595a3.096 3.096 0 00-2.903-2.866A113.04 113.04 0 0010 3.432c-2.886 0-5.262.102-6.926.205zm9.22 5.768L9.628 7.629a.833.833 0 00-1.296.693v3.552a.833.833 0 001.296.694l2.664-1.776a.833.833 0 000-1.387z" fill="#fff"/></svg>